<svg width="32" height="30" viewBox="0 0 32 30" fill="none" xmlns="http://www.w3.org/2000/svg">
<path d="M9.81864 29.6794C9.36703 29.6794 9.01479 29.5349 8.76189 29.2459C8.50899 28.9569 8.38254 28.564 8.38254 28.0672V24.2196H7.14967C5.89422 24.2196 4.78328 23.9531 3.81685 23.4202C2.85946 22.8873 2.10528 22.1241 1.55433 21.1306C1.01241 20.1371 0.741448 18.9539 0.741448 17.581V6.85098C0.741448 5.47811 1.00789 4.29491 1.54078 3.30139C2.07367 2.30787 2.83236 1.54466 3.81685 1.01177C4.81038 0.46985 5.99809 0.19889 7.37999 0.19889H25.3176C26.6995 0.19889 27.8872 0.46985 28.8807 1.01177C29.8743 1.54466 30.6329 2.30787 31.1568 3.30139C31.6897 4.29491 31.9561 5.47811 31.9561 6.85098V17.581C31.9561 18.9539 31.6897 20.1371 31.1568 21.1306C30.6329 22.1241 29.8743 22.8873 28.8807 23.4202C27.8872 23.9531 26.6995 24.2196 25.3176 24.2196H16.7552L11.6747 28.7311C11.3044 29.0653 10.9793 29.3046 10.6993 29.4491C10.4193 29.6027 10.1257 29.6794 9.81864 29.6794Z" fill="#999999"/>
</svg>
