<svg width="21" height="32" viewBox="0 0 21 32" fill="none" xmlns="http://www.w3.org/2000/svg">
<path d="M3.216 31.3154C2.52956 31.3154 1.97861 31.0896 1.56314 30.638C1.14766 30.1954 0.939926 29.6038 0.939926 28.8632V5.03216C0.939926 3.58703 1.32379 2.48061 2.09151 1.71289C2.86826 0.936132 3.97469 0.547754 5.41078 0.547754H16.4931C17.9201 0.547754 19.0175 0.936132 19.7853 1.71289C20.562 2.48061 20.9504 3.58703 20.9504 5.03216V28.8632C20.9504 29.6038 20.7426 30.1954 20.3272 30.638C19.9117 31.0896 19.3607 31.3154 18.6743 31.3154C18.2408 31.3154 17.8524 31.207 17.5092 30.9902C17.166 30.7734 16.7234 30.4031 16.1815 29.8793L11.0603 24.7717C10.9881 24.6994 10.9158 24.6994 10.8435 24.7717L5.72238 29.8793C5.1895 30.4031 4.74241 30.7734 4.38113 30.9902C4.02888 31.207 3.6405 31.3154 3.216 31.3154Z" fill="#999999"/>
</svg>
