<svg width="33" height="31" viewBox="0 0 33 31" fill="none" xmlns="http://www.w3.org/2000/svg">
<path d="M6.93574 30.2876C6.55639 29.9986 6.32607 29.6192 6.24479 29.1496C6.1635 28.6799 6.22672 28.1425 6.43446 27.5374L9.13052 19.5169L2.24811 14.5719C1.72426 14.2016 1.35394 13.8042 1.13717 13.3796C0.920405 12.9461 0.893309 12.499 1.05589 12.0384C1.20943 11.5868 1.49394 11.2526 1.90941 11.0358C2.33392 10.81 2.86229 10.7017 3.49453 10.7107L11.9485 10.7784L14.5226 2.70379C14.7213 2.08058 14.9878 1.6064 15.322 1.28125C15.6652 0.947062 16.0761 0.77997 16.5548 0.77997C17.0335 0.77997 17.44 0.947062 17.7742 1.28125C18.1174 1.6064 18.3883 2.08058 18.5871 2.70379L21.1476 10.7784L29.6016 10.7107C30.2429 10.7017 30.7713 10.81 31.1867 11.0358C31.6112 11.2526 31.9003 11.5913 32.0538 12.0519C32.2073 12.5126 32.1757 12.9551 31.959 13.3796C31.7512 13.8042 31.3854 14.2016 30.8616 14.5719L23.9656 19.5169L26.6752 27.5374C26.883 28.1425 26.9462 28.6799 26.8649 29.1496C26.7836 29.6192 26.5488 29.9986 26.1604 30.2876C25.772 30.5857 25.343 30.694 24.8733 30.6128C24.4037 30.5405 23.9069 30.3147 23.3831 29.9354L16.5548 24.909L9.71308 29.9354C9.19826 30.3147 8.7015 30.5405 8.2228 30.6128C7.75313 30.694 7.32411 30.5857 6.93574 30.2876Z" fill="#999999"/>
</svg>
